<?xml version="1.0" standalone="no"?>
<!DOCTYPE svg PUBLIC "-//W3C//DTD SVG 20010904//EN"
 "http://www.w3.org/TR/2001/REC-SVG-20010904/DTD/svg10.dtd">
<svg version="1.0" xmlns="http://www.w3.org/2000/svg"
 width="1120.000000pt" height="1120.000000pt" viewBox="0 0 1120.000000 1120.000000"
 preserveAspectRatio="xMidYMid meet">
<metadata>
Created by potrace 1.14, written by Peter Selinger 2001-2017
</metadata>
<g transform="translate(0.000000,1120.000000) scale(0.100000,-0.100000)"
fill="#000000" stroke="none">
<path d="M1042 8963 l1 -2238 8 1820 c5 1001 12 1926 16 2056 l9 236 34 58
c44 72 172 203 236 241 42 25 63 29 168 37 67 4 1140 12 2386 16 l2265 7
-2562 2 -2563 2 2 -2237z"/>
<path d="M8840 11189 c536 -6 764 -17 880 -40 102 -21 123 -34 196 -127 37
-48 71 -91 76 -97 4 -5 8 55 8 133 l0 142 -857 -2 -858 -2 555 -7z"/>
<path d="M1457 10792 l-57 -58 0 -5135 0 -5136 59 -56 60 -57 3278 0 c2537 0
3282 3 3291 12 9 9 12 141 12 533 1 556 8 693 40 759 48 101 185 235 287 283
72 33 247 42 831 43 l462 0 0 4378 0 4379 -59 56 -60 57 -4043 0 -4044 0 -57
-58z m5152 -385 c148 -73 250 -146 314 -226 90 -110 251 -328 491 -666 126
-176 229 -321 230 -322 3 -3 240 -74 456 -137 85 -24 220 -63 300 -86 334 -97
480 -147 532 -182 44 -30 49 -80 49 -558 0 -645 -4 -665 -165 -826 -146 -147
-188 -160 -527 -173 -115 -4 -213 -12 -218 -17 -5 -5 -14 -27 -21 -49 -20 -63
-98 -214 -145 -280 -61 -86 -181 -196 -272 -250 -154 -90 -367 -136 -536 -115
-125 15 -250 54 -346 108 -97 54 -221 166 -286 256 -45 65 -124 216 -144 279
-7 20 -22 43 -34 50 -17 9 -217 12 -892 12 -478 0 -887 -4 -907 -8 -31 -6 -39
-14 -49 -44 -68 -207 -209 -398 -374 -508 -91 -61 -149 -88 -249 -116 -218
-60 -426 -42 -632 56 -118 57 -221 138 -300 239 -66 82 -149 238 -180 334 -19
60 -33 72 -154 130 -143 69 -257 176 -337 319 -59 106 -63 137 -73 573 -13
537 -5 593 99 753 92 140 241 227 439 257 40 5 92 19 115 30 42 20 282 221
727 610 319 278 363 315 472 396 116 86 229 144 353 180 131 38 308 43 1303
38 l853 -5 108 -52z m-1239 -4982 l0 -175 -715 0 -715 0 0 175 0 175 715 0
715 0 0 -175z m3978 -2 l2 -173 -720 0 -720 0 0 175 0 175 718 -2 717 -3 3
-172z m-3978 -728 l0 -175 -895 0 -895 0 0 175 0 175 895 0 895 0 0 -175z
m3978 3 l-3 -173 -895 0 -895 0 -3 173 -2 172 900 0 900 0 -2 -172z m-3978
-1083 l0 -175 -715 0 -715 0 0 175 0 175 715 0 715 0 0 -175z m3980 0 l0 -175
-720 0 -720 0 0 175 0 175 720 0 720 0 0 -175z m-3980 -720 l0 -175 -895 0
-895 0 0 175 0 175 895 0 895 0 0 -175z m3978 -2 l2 -173 -900 0 -900 0 0 168
c0 93 3 172 7 175 3 4 407 6 897 5 l891 -3 3 -172z m-3978 -1088 l0 -175 -715
0 -715 0 0 175 0 175 715 0 715 0 0 -175z m0 -720 l0 -175 -895 0 -895 0 0
175 0 175 895 0 895 0 0 -175z"/>
<path d="M4580 10113 c-160 -16 -287 -69 -415 -174 -179 -145 -499 -419 -754
-646 l-36 -31 30 -13 c24 -10 221 -14 913 -17 l882 -4 0 446 0 446 -292 -2
c-161 0 -309 -3 -328 -5z"/>
<path d="M5552 9678 l3 -443 70 -10 c78 -10 1550 -13 1561 -3 15 16 -481 693
-560 765 -58 53 -170 107 -258 123 -28 6 -223 10 -434 10 l-384 0 2 -442z"/>
<path d="M3030 8885 c0 -4 -7 -53 -16 -109 -45 -281 -190 -468 -460 -591 l-74
-34 0 -90 c0 -209 61 -355 173 -416 45 -24 63 -15 71 35 8 52 43 121 113 227
95 142 193 225 372 313 132 65 175 73 395 68 l191 -4 95 -42 c183 -81 319
-188 410 -322 38 -56 104 -185 143 -282 14 -34 19 -37 74 -45 84 -12 1699 -9
1747 3 38 9 41 13 71 89 106 268 247 421 498 540 123 58 155 64 343 65 198 0
244 -8 361 -64 237 -114 370 -251 472 -486 64 -147 62 -144 106 -152 61 -11
324 -9 375 3 48 11 101 54 127 103 11 21 16 62 17 140 l1 111 -60 7 c-235 29
-362 104 -433 256 -25 53 -27 66 -27 192 0 131 1 137 32 203 22 47 29 69 20
72 -7 2 -106 31 -222 64 -115 33 -250 72 -300 86 -113 34 -33 32 -2060 45
-858 5 -1784 13 -2057 16 -274 4 -498 3 -498 -1z m1260 -390 l0 -175 -265 0
-265 0 0 175 0 175 265 0 265 0 0 -175z m2170 0 l0 -175 -270 0 -270 0 0 168
c0 93 3 172 7 175 3 4 125 7 270 7 l263 0 0 -175z"/>
<path d="M2594 8821 c-62 -44 -91 -86 -104 -146 -11 -55 -7 -110 10 -120 18
-11 52 21 100 93 50 73 70 124 70 175 0 36 -25 36 -76 -2z"/>
<path d="M8503 8485 c-38 -16 -53 -42 -53 -89 0 -44 24 -70 80 -87 83 -25 120
22 105 128 -9 62 -58 80 -132 48z"/>
<path d="M3435 7936 c-158 -50 -320 -203 -381 -362 -23 -57 -27 -85 -27 -164
-1 -83 3 -105 31 -175 58 -145 163 -258 298 -321 132 -62 233 -70 362 -29 182
57 329 211 386 404 46 156 -14 347 -156 496 -77 82 -149 128 -233 150 -71 18
-224 19 -280 1z m313 -528 l-3 -173 -172 -3 -173 -2 0 175 0 175 175 0 175 0
-2 -172z"/>
<path d="M7034 7932 c-84 -29 -162 -82 -238 -163 -111 -118 -156 -221 -156
-359 0 -143 55 -266 170 -381 226 -225 523 -225 750 0 230 228 226 531 -10
770 -72 74 -138 113 -225 136 -81 21 -226 19 -291 -3z m326 -527 l0 -175 -175
0 -175 0 0 175 0 175 175 0 175 0 0 -175z"/>
<path d="M1042 2238 l-2 -2238 1403 2 1402 2 -1140 6 c-627 4 -1174 11 -1215
15 -54 5 -92 16 -134 38 -73 39 -198 162 -246 242 l-34 58 -9 236 c-4 130 -11
1055 -16 2056 l-8 1820 -1 -2237z"/>
<path d="M9167 832 c-449 -449 -817 -820 -817 -825 0 -4 371 -7 825 -7 l825 0
0 825 c0 454 -3 825 -8 825 -4 0 -375 -368 -825 -818z"/>
<path d="M8596 1619 c-101 -16 -135 -66 -147 -212 -10 -124 -12 -771 -2 -781
9 -8 993 974 993 991 0 10 -85 13 -397 12 -219 -1 -420 -5 -447 -10z"/>
</g>
</svg>
